<?xml version="1.0" encoding="UTF-8" standalone="no"?>
<!-- Created with Inkscape (http://www.inkscape.org/) -->

<svg
   xmlns:dc="http://purl.org/dc/elements/1.1/"
   xmlns:cc="http://creativecommons.org/ns#"
   xmlns:rdf="http://www.w3.org/1999/02/22-rdf-syntax-ns#"
   xmlns:svg="http://www.w3.org/2000/svg"
   xmlns="http://www.w3.org/2000/svg"
   xmlns:sodipodi="http://sodipodi.sourceforge.net/DTD/sodipodi-0.dtd"
   xmlns:inkscape="http://www.inkscape.org/namespaces/inkscape"
   width="744.09448819"
   height="1052.3622047"
   id="svg2985"
   version="1.1"
   inkscape:version="0.48.2 r9819"
   sodipodi:docname="graphics.svg">
  <defs
     id="defs2987" />
  <sodipodi:namedview
     id="base"
     pagecolor="#14160a"
     bordercolor="#ffffff"
     borderopacity="0.0"
     inkscape:pageopacity="0"
     inkscape:pageshadow="0"
     inkscape:zoom="8"
     inkscape:cx="-7.7209467"
     inkscape:cy="34.670769"
     inkscape:document-units="px"
     inkscape:current-layer="layer2"
     showgrid="true"
     showguides="true"
     inkscape:guide-bbox="true"
     inkscape:window-width="1106"
     inkscape:window-height="1143"
     inkscape:window-x="532"
     inkscape:window-y="27"
     inkscape:window-maximized="0">
    <sodipodi:guide
       orientation="1,0"
       position="0,1680"
       id="guide2993" />
    <inkscape:grid
       type="xygrid"
       id="grid2995"
       empspacing="5"
       visible="true"
       enabled="true"
       snapvisiblegridlinesonly="true" />
    <sodipodi:guide
       orientation="0,1"
       position="0,0"
       id="guide2997" />
  </sodipodi:namedview>
  <metadata
     id="metadata2990">
    <rdf:RDF>
      <cc:Work
         rdf:about="">
        <dc:format>image/svg+xml</dc:format>
        <dc:type
           rdf:resource="http://purl.org/dc/dcmitype/StillImage" />
        <dc:title></dc:title>
      </cc:Work>
    </rdf:RDF>
  </metadata>
  <g
     inkscape:label="graphics"
     inkscape:groupmode="layer"
     id="layer1">
    <rect
       y="1047.3622"
       x="0"
       height="1"
       width="1"
       id="rect3213"
       style="fill:#000000;fill-opacity:1;stroke:none" />
    <rect
       style="fill:#000000;fill-opacity:1;stroke:none"
       id="rect3002"
       width="4"
       height="1"
       x="4"
       y="1045.3622" />
    <path
       sodipodi:nodetypes="cccc"
       inkscape:connector-curvature="0"
       id="path3246"
       d="m 1.5,1048.8622 c 0,0 0,3 1,3 2,0 5,0 7,0 1,0 1,-3 1,-3"
       style="fill:none;stroke:#ffffff" />
    <path
       style="fill:none;stroke:#ffffff;stroke-width:1"
       d="m 16.5,1054.8622 c 0,0 3,0 3,-1 0,-2 0,-5 0,-7 0,-1 -3,-1 -3,-1"
       id="path3211"
       inkscape:connector-curvature="0"
       sodipodi:nodetypes="cccc" />
    <rect
       y="1042.3622"
       x="0"
       height="1"
       width="1"
       id="rect3213-7"
       style="fill:#000000;fill-opacity:1;stroke:none" />
    <rect
       style="fill:#000000;fill-opacity:1;stroke:none"
       id="rect3002-4"
       width="4"
       height="1"
       x="4"
       y="1037.3622" />
    <path
       style="fill:none;stroke:#ffffff"
       d="m 1.5,1041.8622 c 0,0 0,-3 1,-3 2,0 5,0 7,0 1,0 1,3 1,3"
       id="path3211-6"
       inkscape:connector-curvature="0"
       sodipodi:nodetypes="cccc" />
    <rect
       style="fill:none;stroke:none"
       id="caret.bottom-5"
       width="11"
       height="6"
       x="0"
       y="1037.3622"
       inkscape:label="caret.bottom"
       inkscape:export-xdpi="90"
       inkscape:export-ydpi="90" />
    <path
       sodipodi:nodetypes="cccc"
       inkscape:connector-curvature="0"
       id="path3248"
       d="m 19.5,1041.8622 c 0,0 -3,0 -3,-1 0,-2 0,-5 0,-7 0,-1 3,-1 3,-1"
       style="fill:none;stroke:#ffffff;stroke-width:1" />
    <rect
       y="15"
       x="-1039.3622"
       height="1"
       width="4"
       id="rect3250"
       style="fill:#000000;fill-opacity:1;stroke:none"
       transform="matrix(0,-1,1,0,0,0)" />
    <rect
       transform="matrix(0,-1,1,0,0,0)"
       style="fill:#000000;fill-opacity:1;stroke:none"
       id="rect3252"
       width="4"
       height="1"
       x="-1052.3622"
       y="13" />
    <rect
       style="fill:#000000;fill-opacity:1;stroke:none"
       id="rect3254"
       width="1"
       height="1"
       x="15"
       y="1044.3622" />
    <rect
       y="1031.3622"
       x="20"
       height="1"
       width="1"
       id="rect3256"
       style="fill:#000000;fill-opacity:1;stroke:none" />
    <path
       style="fill:#ffffff;fill-opacity:1;stroke:#ffffff;stroke-width:1;stroke-linecap:round;stroke-linejoin:round;stroke-miterlimit:4;stroke-opacity:1;stroke-dasharray:none"
       d="m 1,976.36218 0,12 14,0 c 0,-14 -11,-16 -11,-16 l -3,4"
       id="path3005"
       inkscape:connector-curvature="0"
       sodipodi:nodetypes="ccccc" />
    <path
       sodipodi:nodetypes="ccccc"
       inkscape:connector-curvature="0"
       id="path3775"
       d="m 1,1005.3622 0,-12.00002 14,0 c 0,14.00002 -11,16.00002 -11,16.00002 l -3,-4"
       style="fill:#ffffff;fill-opacity:1;stroke:#ffffff;stroke-width:1;stroke-linecap:round;stroke-linejoin:round;stroke-miterlimit:4;stroke-opacity:1;stroke-dasharray:none" />
    <path
       sodipodi:nodetypes="ccccc"
       inkscape:connector-curvature="0"
       id="path3777"
       d="m -15,976.36218 0,12 -14,0 c 0,-14 11,-16 11,-16 l 3,4"
       style="fill:#ffffff;fill-opacity:1;stroke:#ffffff;stroke-width:1;stroke-linecap:round;stroke-linejoin:round;stroke-miterlimit:4;stroke-opacity:1;stroke-dasharray:none" />
    <path
       style="fill:#ffffff;fill-opacity:1;stroke:#ffffff;stroke-width:1;stroke-linecap:round;stroke-linejoin:round;stroke-miterlimit:4;stroke-opacity:1;stroke-dasharray:none"
       d="m -15,1005.3622 0,-12.00002 -14,0 c 0,14.00002 11,16.00002 11,16.00002 l 3,-4"
       id="path3779"
       inkscape:connector-curvature="0"
       sodipodi:nodetypes="ccccc" />
  </g>
  <g
     inkscape:groupmode="layer"
     id="layer2"
     inkscape:label="exports">
    <rect
       style="fill:none;stroke:none"
       id="caret.bottom"
       width="11"
       height="7"
       x="0"
       y="1045.3622"
       inkscape:label="caret.bottom"
       inkscape:export-xdpi="90"
       inkscape:export-ydpi="90" />
    <rect
       style="fill:none;stroke:none"
       id="caret.top"
       width="11"
       height="7"
       x="0"
       y="1037.3622"
       inkscape:label="caret.top"
       inkscape:export-xdpi="90"
       inkscape:export-ydpi="90"
       inkscape:export-filename="/home/cheery/essence/editor/assets/caret.bottom.png" />
    <rect
       style="fill:none;stroke:none"
       id="caret.right"
       width="7"
       height="11"
       x="13"
       y="1044.3622"
       inkscape:label="caret.right"
       inkscape:export-filename="/home/cheery/essence/editor/assets/caret.bottom.png"
       inkscape:export-xdpi="90"
       inkscape:export-ydpi="90" />
    <rect
       style="fill:none;stroke:none"
       id="caret.left"
       width="7"
       height="11"
       x="15"
       y="1031.3622"
       inkscape:label="caret.left"
       inkscape:export-filename="/home/cheery/essence/editor/assets/caret.bottom.png"
       inkscape:export-xdpi="90"
       inkscape:export-ydpi="90" />
    <rect
       style="fill:none;fill-opacity:1;stroke:none"
       id="alien.left"
       width="16"
       height="39"
       x="-30"
       y="971.36218"
       inkscape:label="alien.left" />
    <rect
       y="971.36218"
       x="0"
       height="39"
       width="16"
       id="alien.right"
       style="fill:none;fill-opacity:1;stroke:none"
       inkscape:label="alien.right" />
  </g>
</svg>
